<svg width="24" height="24" viewBox="0 0 24 24" fill="none" xmlns="http://www.w3.org/2000/svg">
<path d="M3.49938 22.0004C2.99938 22.0004 2.49938 21.9004 1.99938 21.6004C0.599377 20.8004 0.0993767 18.9004 0.899377 17.5004L9.39938 3.30039C9.69938 2.90039 9.99938 2.50039 10.3994 2.30039C11.0994 1.90039 11.8994 1.80039 12.6994 2.00039C13.4994 2.20039 14.0994 2.70039 14.5994 3.40039L22.9994 17.5004C23.2994 18.0004 23.3994 18.5004 23.3994 19.0004C23.3994 19.8004 23.0994 20.6004 22.4994 21.1004C21.9994 21.7004 21.2994 22.0004 20.4994 22.0004H3.49938ZM11.0994 4.40039L2.69938 18.5004C2.39938 19.0004 2.59938 19.6004 3.09938 19.9004C3.19938 20.0004 3.39938 20.0004 3.49938 20.0004H20.3994C20.6994 20.0004 20.8994 19.9004 21.0994 19.7004C21.2994 19.5004 21.3994 19.3004 21.3994 19.0004C21.3994 18.8004 21.3994 18.7004 21.2994 18.5004L12.8994 4.40039C12.5994 3.90039 11.9994 3.80039 11.4994 4.00039C11.2994 4.10039 11.1994 4.20039 11.0994 4.40039Z" fill="white"/>
<path d="M11.9994 14.0004C11.3994 14.0004 10.9994 13.6004 10.9994 13.0004V9.00039C10.9994 8.40039 11.3994 8.00039 11.9994 8.00039C12.5994 8.00039 12.9994 8.40039 12.9994 9.00039V13.0004C12.9994 13.6004 12.5994 14.0004 11.9994 14.0004Z" fill="white"/>
<path d="M11.9994 18.0004C11.6994 18.0004 11.4994 17.9004 11.2994 17.7004C11.0994 17.5004 10.9994 17.3004 10.9994 17.0004C10.9994 16.9004 10.9994 16.7004 11.0994 16.6004C11.1994 16.5004 11.1994 16.4004 11.2994 16.3004C11.3994 16.2004 11.4994 16.1004 11.5994 16.1004C11.7994 16.0004 11.9994 16.0004 12.1994 16.0004C12.2994 16.0004 12.2994 16.0004 12.3994 16.1004C12.4994 16.1004 12.4994 16.1004 12.5994 16.2004C12.5994 16.2004 12.6994 16.3004 12.7994 16.3004C12.8994 16.4004 12.9994 16.5004 12.9994 16.6004C12.9994 16.7004 13.0994 16.9004 13.0994 17.0004C13.0994 17.3004 12.9994 17.5004 12.7994 17.7004C12.4994 17.9004 12.2994 18.0004 11.9994 18.0004Z" fill="white"/>
</svg>
